<?xml version="1.0" encoding="utf-8"?>
<!-- Generator: Adobe Illustrator 16.0.0, SVG Export Plug-In . SVG Version: 6.00 Build 0)  -->
<!DOCTYPE svg PUBLIC "-//W3C//DTD SVG 1.1//EN" "http://www.w3.org/Graphics/SVG/1.1/DTD/svg11.dtd">
<svg version="1.1" id="Layer_1" xmlns="http://www.w3.org/2000/svg" xmlns:xlink="http://www.w3.org/1999/xlink" x="0px" y="0px"
	 width="130.394px" height="41.219px" viewBox="0 0 130.394 41.219" enable-background="new 0 0 130.394 41.219"
	 xml:space="preserve">
<path d="M120.892,18.846c0.018,1.912,1.551,3.462,3.463,3.462s3.463-1.549,3.463-3.462V9.28c0-1.912-1.551-3.463-3.463-3.463
	s-3.463,1.551-3.463,3.463l0.018,5.646c0,0-0.436,1.881-2.496,1.961c-2.061,0.079-7.646-2.813-9.688-8.157
	c-0.731-1.787-1.75-2.496-3.326-2.496c-1.563,0-2.885,0.996-3.314,2.457c-1.936,6.374-6.49,8.345-7.916,8.443
	c-1.109,0.109-1.861,0.833-1.861,1.812c0,0.98,0.752,1.625,1.901,1.625c2.495,0,7.487-1.545,11.25-5.586
	C109.46,18.906,117.688,22.471,120.892,18.846"/>
<path d="M55.844,15.487c-1,0-1.811-0.81-1.811-1.81l0.012-4.872c0-1.912,1.549-3.463,3.463-3.463c1.912,0,3.424,1.551,3.424,3.463
	v3.09h19.839c2.228,0,2.908-0.488,3.613-0.713c0.99-0.317,2.092-0.104,2.513,0.84c0.42,0.942-0.072,1.885-0.875,2.403
	c-0.806,0.52-2.607,1.034-5.251,1.034h-7.576v1.902l13.727,0.032c0.998,0,1.809,0.81,1.809,1.81c0,0.999-0.811,1.81-1.809,1.81
	H53.467c-1,0-1.81-0.811-1.81-1.81c0-1,0.81-1.81,1.81-1.81l12.954-0.032v-1.902L55.844,15.487z"/>
<path d="M53.322,28.77c0-3.925,7.487-7.108,16.722-7.108c9.235,0,16.723,3.184,16.723,7.108s-7.487,7.106-16.723,7.106
	C60.81,35.876,53.322,32.695,53.322,28.77 M70.044,32.467c5.385,0,9.748-1.655,9.748-3.697s-4.363-3.698-9.748-3.698
	c-5.383,0-9.747,1.656-9.747,3.698S64.661,32.467,70.044,32.467"/>
<path d="M95.628,24.314c0-1,0.811-1.81,1.811-1.81h28.641c0.998,0,1.809,0.81,1.809,1.81v8.021c0,0.999-0.811,1.809-1.809,1.809
	H97.438c-1,0-1.811-0.81-1.811-1.809V24.314z M102.487,30.552h18.422v-4.516h-18.422V30.552z"/>
<path fill="#FFFFFF" d="M24.171,41.219c13.351,0,24.171-9.228,24.171-20.609C48.342,9.227,37.521,0,24.171,0
	C10.822,0,0,9.227,0,20.61C0,31.992,10.822,41.219,24.171,41.219"/>
<path fill="#ED1C24" d="M1.731,20.61c0-10.568,10.047-19.134,22.439-19.134c12.395,0,22.44,8.565,22.44,19.134
	c0,10.565-10.046,19.133-22.44,19.133C11.778,39.743,1.731,31.175,1.731,20.61 M24.171,23.853c3.938,0,7.128-4.594,7.128-10.26
	c0-5.665-3.19-10.259-7.128-10.259c-3.937,0-7.127,4.594-7.127,10.259C17.044,19.259,20.234,23.853,24.171,23.853"/>
</svg>
