<svg width="26" height="26" viewBox="0 0 26 26" fill="none" xmlns="http://www.w3.org/2000/svg">
<path d="M22.9685 21.091C22.9685 20.7937 22.8613 20.3851 22.6221 20.1459C22.5689 20.0926 22.5111 20.044 22.4494 20.0007C22.0595 19.7361 21.7388 19.3818 21.5144 18.9675C20.949 17.889 20.0004 15.5753 20.0004 12.1983C20.0004 10.3971 19.2424 8.56918 17.9206 7.18352C16.9395 6.15499 15.7156 5.44796 14.4295 5.14251C14.7636 4.85142 15.0009 4.46527 15.1096 4.03568C15.2183 3.6061 15.1933 3.15357 15.0378 2.73859C14.8824 2.32362 14.604 1.96598 14.2398 1.7135C13.8757 1.46103 13.4431 1.32574 13 1.32574C12.5569 1.32574 12.1243 1.46103 11.7601 1.7135C11.396 1.96598 11.1176 2.32362 10.9622 2.73859C10.8067 3.15357 10.7817 3.6061 10.8904 4.03568C10.9991 4.46527 11.2364 4.85142 11.5705 5.14251C10.2844 5.44807 9.06054 6.1554 8.07929 7.18443C6.75751 8.57076 5.99945 10.3989 5.99945 12.2001C5.99945 15.7883 4.96031 18.1189 4.34093 19.1887C4.14748 19.5131 3.88655 19.7921 3.57581 20.0068C3.52023 20.0461 3.46802 20.0899 3.41971 20.1378C3.17053 20.3924 3.03122 20.7347 3.03174 21.091C3.03174 21.8364 3.62679 22.4453 4.3582 22.4453H10.6264C10.5813 22.6388 10.558 22.8368 10.557 23.0355C10.5573 23.6835 10.8151 24.3048 11.2735 24.7627C11.732 25.2206 12.3536 25.4776 13.0015 25.4773C13.6495 25.4769 14.2708 25.2191 14.7287 24.7607C15.1866 24.3022 15.4436 23.6807 15.4432 23.0327C15.4421 22.8349 15.4189 22.6379 15.374 22.4453H21.642C22.3734 22.4453 22.9685 21.8364 22.9685 21.091ZM13.0001 2.02673C13.2915 2.02536 13.5768 2.11053 13.8198 2.27145C14.0628 2.43236 14.2525 2.66178 14.365 2.93063C14.4775 3.19949 14.5076 3.49568 14.4516 3.78168C14.3956 4.06768 14.2559 4.33062 14.0504 4.53719C13.8448 4.74375 13.5825 4.88464 13.2968 4.94201C13.011 4.99937 12.7147 4.97064 12.4453 4.85943C12.1759 4.74823 11.9456 4.55957 11.7836 4.31735C11.6215 4.07513 11.535 3.79026 11.535 3.49883C11.5345 3.10946 11.6885 2.73579 11.9631 2.45982C12.2378 2.18384 12.6107 2.02809 13.0001 2.02673ZM3.74268 21.091C3.74265 20.9232 3.80747 20.7618 3.92361 20.6406C3.94378 20.6208 3.96556 20.6026 3.98871 20.5863C4.38221 20.3128 4.71222 19.9577 4.9563 19.5453C5.61138 18.4137 6.71054 15.9547 6.71054 12.2004C6.71054 10.5799 7.397 8.93054 8.59396 7.67523C9.80113 6.4092 11.4072 5.68313 13.0001 5.68313C14.593 5.68313 16.1993 6.40885 17.4063 7.67421C18.6032 8.92897 19.2897 10.5779 19.2897 12.1982C19.2897 15.7275 20.2891 18.1609 20.8849 19.2974C21.1616 19.8121 21.558 20.2526 22.0406 20.5819C22.0685 20.6013 22.0947 20.6231 22.1188 20.6471C22.1927 20.721 22.2575 20.9298 22.2575 21.0912C22.2575 21.4387 21.9756 21.7346 21.642 21.7346H4.3582C4.02456 21.7344 3.74268 21.4385 3.74268 21.091ZM14.7323 23.0321C14.7307 23.2838 14.6743 23.5322 14.567 23.76C14.4596 23.9877 14.3039 24.1893 14.1107 24.3507C13.9175 24.5121 13.6914 24.6295 13.4483 24.6946C13.2051 24.7598 12.9506 24.7711 12.7026 24.7279C12.4546 24.6846 12.2189 24.5879 12.0121 24.4443C11.8053 24.3007 11.6323 24.1137 11.5051 23.8965C11.3779 23.6792 11.2996 23.4368 11.2757 23.1862C11.2517 22.9356 11.2827 22.6827 11.3664 22.4453H14.6339C14.7009 22.6336 14.7342 22.8322 14.7323 23.0321Z" fill="black"/>
</svg>
